<svg xmlns="http://www.w3.org/2000/svg" xmlns:xlink="http://www.w3.org/1999/xlink" width="2048" height="2048" viewBox="0 0 2048 2048">
  <defs>
    <style>
      .cls-1 {
        clip-path: url(#clip-link);
      }

      .cls-2 {
        fill: #1c1c1c;
        stroke: #1c1c1c;
      }
    </style>
    <clipPath id="clip-link">
      <rect width="2048" height="2048"/>
    </clipPath>
  </defs>
  <g id="link" class="cls-1">
    <g id="组件_1_1" data-name="组件 1 – 1" transform="translate(247.203 152.781)">
      <path id="联合_2" data-name="联合 2" class="cls-2" d="M59.378,1500.207c-310.082,0-305.721-312.989-305.721-312.989s-1.938-544.58,0-788.768S38.545,112.438,38.545,112.438H577.31V285.077H38.545c-115.8,0-112.89,131.784-112.89,131.784s-1.938,635.666,0,770.358S59.378,1321.911,59.378,1321.911s740.706,3.343,790.707,0,113.2-46.781,114.391-168.764-3.925-311.862-3.925-311.862h172.483s.49,2.717,0,311.862-25.719,343.548-282.949,347.061c-85.754,1.171-167.717,1.561-250.415,1.561C434.3,1501.768,266.087,1500.207,59.378,1500.207ZM266.423,1078.18a46.206,46.206,0,0,1-15.382-10.214l-86.975-86.974a46.464,46.464,0,0,1,0-65.762L807.817,271.48l.354-.354-.354-.353L629.882,92.84a31,31,0,0,1-5.111-6.713,29.815,29.815,0,0,1-2.947-7.411,30.863,30.863,0,0,1,7.7-28.709,29.818,29.818,0,0,1,6.26-4.943,31.024,31.024,0,0,1,7.785-3.255l719.711-192.52a31.071,31.071,0,0,1,8.023-1.068,29.847,29.847,0,0,1,7.091.854,30.126,30.126,0,0,1,6.519,2.426,31.154,31.154,0,0,1,10.494,8.739,30.56,30.56,0,0,1,5.635,12.161,30.234,30.234,0,0,1-.416,14.234L1208.1,606.345a30.04,30.04,0,0,1-11.34,16.689,31.015,31.015,0,0,1-18.248,5.948,29.968,29.968,0,0,1-11.278-2.18,30.471,30.471,0,0,1-10.165-6.773L961.259,424.215l-.354-.353-.354.353L316.8,1067.966a46.549,46.549,0,0,1-50.378,10.214Z" transform="translate(247.204 151.781)"/>
    </g>
  </g>
</svg>
