<svg xmlns="http://www.w3.org/2000/svg" width="34" height="26" viewBox="0 0 34 26">
  <defs>
    <style>
      .cls-1 {
        fill: #1c1c1c;
      }
    </style>
  </defs>
  <path id="UP" class="cls-1" d="M23,26H11A11,11,0,0,1,0,15V11A11,11,0,0,1,11,0H23A11,11,0,0,1,34,11v4A11,11,0,0,1,23,26ZM18.88,6.81V18.27h1.184V13.59H23.9a3.289,3.289,0,0,0,1.905-.51,2.522,2.522,0,0,0,.945-2.174V9.48a2.961,2.961,0,0,0-.27-1.35A2.633,2.633,0,0,0,23.9,6.81ZM8.32,6.81v8.8a2.782,2.782,0,0,0,.3,1.38,2.651,2.651,0,0,0,2.534,1.275h2.2a3.249,3.249,0,0,0,1.815-.465,2.441,2.441,0,0,0,1.02-2.19V6.81h-1.2v8.8a1.558,1.558,0,0,1-.66,1.44,1.952,1.952,0,0,1-.96.18h-2.22a1.964,1.964,0,0,1-1-.21,1.523,1.523,0,0,1-.616-1.41V6.81Zm15.6,5.745H20.05V7.83H23.9a1.589,1.589,0,0,1,1.215.45,1.783,1.783,0,0,1,.42,1.26v1.3a1.783,1.783,0,0,1-.42,1.26A1.568,1.568,0,0,1,23.92,12.555Z" transform="translate(0 0)"/>
</svg>
