<svg xmlns="http://www.w3.org/2000/svg" width="26" height="26" viewBox="0 0 26 26">
  <defs>
    <style>
      .cls-1 {
        fill: #1c1c1c;
      }
    </style>
  </defs>
  <path id="投币" class="cls-1" d="M13,26A13,13,0,0,1,3.808,3.808,13,13,0,1,1,22.192,22.192,12.915,12.915,0,0,1,13,26ZM10.02,12.43h2.866v7.62H14.01V12.43H17.1v3.615c0,.348-.157.525-.465.525a4.87,4.87,0,0,1-1.305-.18l.166,1.155a10.7,10.7,0,0,0,1.44.09,1.378,1.378,0,0,0,1.042-.3,1.448,1.448,0,0,0,.263-.96V11.41H14.01V8.785a44.634,44.634,0,0,0,4.424-.855L17.58,6.91a44.388,44.388,0,0,1-9.464,1.5l.39.976c1.139-.06,2.613-.2,4.38-.42V11.41H8.88v6.465H10.02V12.431Z" transform="translate(0 0)"/>
</svg>
