<svg xmlns="http://www.w3.org/2000/svg" width="34" height="26" viewBox="0 0 34 26">
  <defs>
    <style>
      .cls-1 {
        fill: #1c1c1c;
      }
    </style>
  </defs>
  <path id="排除_1" data-name="排除 1" class="cls-1" d="M23,26H11A11,11,0,0,1,0,15V11A11,11,0,0,1,11,0H23A11,11,0,0,1,34,11v4A11,11,0,0,1,23,26ZM14.107,6.387a1,1,0,0,0-1,1V18.611a1,1,0,0,0,1,1,.991.991,0,0,0,.576-.187l7.9-5.611a1,1,0,0,0,0-1.63l-7.9-5.611A.991.991,0,0,0,14.107,6.387Z" transform="translate(0 0)"/>
</svg>
